<svg width="24" height="23" viewBox="0 0 24 23" fill="none" xmlns="http://www.w3.org/2000/svg">
<path d="M23.1766 11.5712C23.1766 5.17885 17.9935 0 11.6054 0C5.21303 0 0.0341797 5.17885 0.0341797 11.5712C0.0341797 17.3453 4.26419 22.1329 9.79741 23V14.9168H6.85904V11.572H9.79741V9.02122C9.79741 6.12191 11.5222 4.52074 14.1663 4.52074C15.4326 4.52074 16.7582 4.74638 16.7582 4.74638V7.59362H15.2966C13.8618 7.59362 13.4134 8.48678 13.4134 9.40163V11.5712H16.6223L16.1066 14.916H13.4134V22.9993C18.9423 22.1322 23.1766 17.3446 23.1766 11.5705V11.5712Z" fill="black"/>
</svg>
