<svg xmlns="http://www.w3.org/2000/svg" width="100%" height="100%" viewBox="0 0 485 500" fill="none">
  <path stroke="#005248" stroke-width="25" d="M288 427V257"/>
  <circle cx="371" cy="100" r="100" fill="#E3AC3F" fill-opacity=".9"/>
  <path stroke="#000" d="m236.707 499 1.13-3.386.565-3.386.283-4.233.282-2.539V475.579l.283-3.104-.283-2.539V465.421l.283-3.386V447.926l.282-4.233V435.792l.565-3.668v-6.208l.283-3.668-.283-2.822.283-2.54.282-3.95.565-3.104-.282-3.668-.283-3.104v-3.104c-.094-.941-.282-2.935-.282-3.386v-1.976c0-.451.188-2.445.282-3.386v-1.975l.283-3.386.847-2.257v-9.595l-.282-3.103V361.297l-.565-2.257-.848-2.257.283-2.258.565-1.411.565-1.975v-3.668l-.565-1.975v-1.694l.282-1.41.283-1.411V329.694l-.283-2.54-.847-2.257-.848-2.54-.565-3.386-1.413-1.693-2.542-1.975-2.26-1.411-2.261-.565-1.977-.846-2.261-.282-2.825-1.129-2.26-.564-2.26-.565-2.261-.846-1.977-.565-2.26-.846-3.391-1.411-3.673-1.693-1.695-.847-1.977-.846-.848-.565-1.978-.564h-1.695l-.847.564v.565h2.542c.452 0 .754.188.848.282l.282.847-.565.846c0-.094-.113-.226-.565 0-.565.282-.847 0-1.13.282-.226.226-.659.282-.847.282H194.328l-.565.283-.283.564.283.564c0 .094.113.282.565.282.565 0 .565-.282 1.13 0 .565.283 1.13.283 1.413.283h.847c1.13.282 1.13.564 1.13.846.565 1.129 1.13 1.129 1.413 1.129.282 0 .565.564.565.846 0 1.411.282 1.129.565 1.411.226.226 1.036.471 1.413.565l.847.846v2.258l.283 1.128.565.283c.282.094.847.338.847.564 0 .282.283.846.565.846.283 0 .565.283.565.565 0 .225.377 1.034.566 1.411v.564l-.566.564h-.565l-1.13-.564-.565-.564-.565-.283-.847-.846c-.283-.094-.904-.282-1.13-.282h-.848c-.565 0-1.13-.282-1.413 0-.282.282-.565 0-.847.282-.283.282-.565 0-.848.282-.226.226-.659.47-.847.564-.095-.188-.396-.451-.848 0-.452.452-1.318.753-1.695.847l-1.978-.847-1.413-.846-1.412-1.693-1.695-.282-.565 1.128-.283 1.129-.565.564c-.282 0-.848-.056-.848-.282 0-.225-.376-.658-.565-.846l-.847-.565h-.565c-.094.283-.283.903-.283 1.129v.847c0 .451-.376.94-.565 1.128h-.847l-.848-.564-1.13-.847c-.188-.094-.622-.282-.848-.282h-.847c0 .094-.057.282-.283.282-.226 0-.659.189-.847.283l-.848.564H175.398c-.226 0-.47-.564-.565-.847 0-.094-.056-.338-.282-.564-.226-.226-.848-.47-1.13-.564l-.848-.565h-1.412l-1.131.565-.565-.565c0-.376-.056-1.128-.282-1.128-.226 0-.848-.377-1.13-.565h-1.978c-.188 0-.565.057-.565.283 0 .282 0 .282-.565.282h-1.13c-.094-.188-.339-.565-.565-.565h-1.13c-.283 0-.848-.282-1.13 0-.226.226-1.036.283-1.413.283H157.882c-.226 0-.659-.189-.848-.283-.282-.188-.678-.62 0-.846.848-.282.848-.565 1.13-.565.283 0 .283-.282 1.13-.564.848-.282.565-.282 1.13-.564.566-.282.566-.565.566-.847v-.846c0-.452-.377-.941-.566-1.129-.188-.188-.678-.564-1.13-.564H157.599c-.452 0-.753-.377-.848-.565l.565-1.129 1.413-.564.565-.846-1.13-.847-.848-.564-1.13-.565v-1.41c0-.226.754-.659 1.13-.847l-.282-1.129-1.13-.564-.565-.565-.283-1.41-.847-.847h-1.13l-1.131.282h-1.13c-.282 0-.847 0-.847-.282 0-.226-.565-.846-.848-1.129l-.282-.564h-2.261l-.565.282-.282.282H144.885l-.565-.282-.565-.846H142.342l-.565.564h-.565c-.188.094-.621.282-.847.282-.678-.226-1.224-.282-1.413-.282 0-.094-.056-.339-.282-.564-.283-.283.282-1.129-.565-1.129h-1.696l-.847-.564v-.847c.094 0 .339-.056.565-.282.282-.282.282-.564.847-.564.453 0 1.131-.189 1.413-.283h.283c.847 0 1.695 0 1.695-.282s.565-.282.847-.564c.283-.282.565-.282.848-.282h2.26c1.356.225 2.072.282 2.26.282.189.094.565.226.565 0s.189-.47.283-.564c.094-.095.17-.339-.283-.565h-2.825c-1.13-.282-1.978 0-1.978-.564 0-.565-.565-.565-.565-.847 0-.282 0 0-.282-.564l-.565-1.129v-.846l.565-.847-.283-1.411-.847-.564-1.413-.564h-.847c-.095.188-.339.564-.565.564-.283 0-.566 0-.566.564v1.129c0 .282.566.282.566.564s.565.282.565.565c0 .282.565.282.565.564s0 .847.282.847c.283 0 .565.282.565.564s.283.846 0 1.129c-.282.282-.282.282-.847.282h-1.13c-.226 0-.848-.188-1.131-.282.095 0 .17-.057-.282-.283a12.95 12.95 0 0 0-1.413-.564c-.188-.094-.621-.282-.847-.282h-.848c-.282 0-.565-.282-.847 0-.283.282-.848.282-.848.564 0 .226-.377.659-.565.847l-.283.564-.565.565-.565.564c.094-.094.17-.226-.282 0-.452.226-1.13.094-1.413 0l-.565-.282c-.188-.188-.622-.565-.848-.565-.226 0-.659.188-.847.283-.283 0-.848.056-.848.282 0 .282-.565.282-.565.564s-.282.282-.565.282c-.847-.282-1.13-.282-.847-.564.452-.677.565-1.411.565-1.693 0-.188-.113-.565-.565-.565-.565 0-.565 0-.848.283-.283.282-.283.846-.565.846h-.565l-.848-.846-.282-.847h-.565l-.848.282-.565.282c-.188-.094-.621-.338-.847-.564-.283-.282-.566-.846-.283-1.129.226-.225.659-.47.848-.564l.565-.564c.282-.283.565-.283 1.13-.565.452-.225.753-.47.847-.564h.283c.188-.188.678-.564 1.13-.564.452 0 .942-.377 1.13-.565.283.094.848.226.848 0 0-.225.565-.47.847-.564.189.094.565.226.565 0 0-.282.848 0 .848-.564 0-.452.188-.753.282-.847.095-.094.226-.339 0-.564-.282-.283-.847-.847-1.13-.847-.282 0 0 .282-.847-.282-.848-.564-.848-.564-1.413-.564-.565 0-.565-.565-1.13 0-1.13.564-1.13.282-1.695.564-.565.282-.565.282-1.13.282s-.565-.282-1.13 0-.848.564-1.131.564c-.282 0-.847.283-1.13.565-.282.282-.847 1.129-1.412 1.129s-1.13.564-1.413.564c-.226 0-.471.376-.565.564-.188 0-.565.113-.565.565v3.104c0 .564 0 .846-.283 1.128-.282.282-.565 0-.847.565-.283.564-.565.564-1.13.846-.452.226-1.13.282-1.413.282h-.848c-.226 0-1.224.188-1.695.283-.282-.095-.904-.226-1.13 0-.282.282-.282.282-.847.282-.904.451-1.507.94-1.696 1.128-.188.094-.621.283-.847.283h-1.413c-.282-.094-.904-.339-1.13-.565 0-.846 0-.564.565-1.128.565-.565.565-.565.565-1.129 0-.565 0-1.129-.565-1.129s-1.13 0-1.13-.282.565-.282.565-1.129c0-1.411-.282-1.693-.847-1.411-.566.282-1.13.565-1.13.847v.846c0 .283-.283.847-.283 1.129v3.104c-.188.094-.735.226-1.413 0-.847-.282-1.412-.846-1.695-.846h-.847c-.283 0-1.13.282-.848.846.282.564.284 1.129.566 1.411.281 1.975.281 1.693-.566 1.693s-.282 0-1.412-.564c-1.13-.565-1.413-.847-1.978-.847s-1.13.282-1.13-.282.565-.564-.282-.847c-.678-.225-.848.471-.848.847-.188.188-.565.677-.565 1.129v1.128c0 .565-.283.565 0 1.129-.282.846-1.978.282-2.825.282-.848 0-1.13-.282-1.695-.282-.452 0-1.884.564-2.543.846l-2.26 1.129c-.377.282-1.13.903-1.13 1.129 0 .282.282 1.411.282 1.693 0 .282-.282.564 0 .847.283.282.565.846 1.413.846.847 0 1.13-.282 1.695 0 .565.282.282 0 .848.564l.847.847c.094.094.283.339.283.564 0 .283.282.283-.283.565s-.565.282-1.13.282-.848.282-1.13 0c-.283-.282-.565-.282-.848-.282-.226 0-.659.188-.847.282 0 .282-.057.903-.283 1.129a47.423 47.423 0 0 0-.847 2.257l-.283 1.129c-.188.376-.621 1.128-.847 1.128h-.848c-.565 0-.848-.282-.848-.564 0-.226-.188-.658-.282-.847 0-.376-.057-1.185-.283-1.41-.282-.283-.847-.847-1.13-.847-.282 0-.565-.282-.847 0-.848.282-1.413.282-1.413 0v-1.129c0-1.128-.188-1.975-.283-2.257l-.282-.847c-.094-.188-.396-.564-.848-.564-.565 0-.847-.564-1.13 0-.282.564-.282.847-.565.847-.678-.226-.847-.659-.847-.847H61.823c-.565 0-1.13-.282-1.13-.564v-.847l-.283-.846h-2.825c-.282 0-.282-.565-.565-.565s0 0-.565-.282-.565-.282-.848.282c-.282.565-.282.847-.565 1.129-.847.847-1.13 1.693-1.695.564l-.847-1.693c-.189-.188-.622-.508-.848-.282-.283.282-1.13.282-1.413.282-.282 0-.847 0-1.13-.282-.282-.282-.565-.282-.565-.846 0-.565 0-1.129.283-1.411.226-.226.47-.659.565-.847v-.282c-.283-.188-.904-.564-1.13-.564-.283 0-.283-.565-.848 0-1.978 2.539-1.978 1.975-2.26 2.821-.283.847-.283.847-.565 1.129-.283.282-1.13.282-1.13.564 0 .283-.283 0-.565 0-.283 0-.565.283-.848-.282l-.565-1.128-.565-.565v-1.129c0-.564-.565-1.41-.283-1.41.283 0 .566 0 .848-.565.282-.564.281.565.847-.564.453-.903.377-1.881.282-2.258l-.564-.282c-.565-.282-.564-.564-1.13-.564-1.13 0-1.413-.282-1.978.564-.848 1.411-1.13 1.411-1.413 1.976l-.565 1.128c.094.094.226.339 0 .565-.283.282-.283.282-.848.564s-.847.564-1.13.282c-.282-.282 0 .282-.847-.282-.848-.564-1.13-.564-1.413-.564-.283 0-.283.564-.848.846-.565.282-.565.282-.847.564-.283.283-.283 1.976-.848.283 0-2.258-.565-2.822.283-2.822.847 0 .847 0 1.695-.282.678-.226 1.036-.847 1.13-1.129 0-.282-.057-.903-.283-1.129-.282-.282-.282-.564-.847-.564s-.847-.564-1.13 0c-.283.564-.283.282-.565.846-.283.565-.848.283-.848.847 0 .564-.565.564-.565.847 0 .282 0 0-.565.564s-1.695.564-1.695 0v-1.693c0-.282.282-.282-.283-.565-1.13 0-1.13-.564-1.695 0-1.13.847-.283 1.411-1.13 1.411-.848 0-1.695.565-1.695-.846V291.6c.188-.094.452-.339 0-.565a2.843 2.843 0 0 0-1.13-.282l-.283-.282c-.226-.226-1.036-.659-1.413-.847-.188-.094-.565-.395-.565-.846v-1.693c-.188-.188-.508-.621-.282-.847.282-.282.847-.564 0-.846l-1.695-.565c-.847-.282-1.695-.564-1.695-.846 0-.282-1.412-.565 0-1.411 1.413-.847 2.544-.847 3.108-.847h1.413c1.129 0 1.13 0 1.695-.282.565-.282.565-.564.282-1.128-.282-.565-1.694-1.411-1.977-2.258-.284-.846-.567-.846-.284-1.129.284-.282.565-.564 1.695-.564h1.696c1.13 0 1.131-.282 1.696 0 .564.282.565.282 1.13.282s1.13 0 1.13-.282.563-.564 0-1.129c-.565-.564.566-.846-1.13-1.128-1.696-.283-1.695 0-2.826-.565-1.13-.564-1.412-.564-1.412-.846 0-.282-.847-.565 0-.847 3.108 0 4.52 0 4.803.282.847-.564.563-.282.847-1.128.283-.847 0-1.411.565-1.411.566 0 1.13-.847 1.695 0 .565.846-.283.564.565 1.129.848.564.565.846 1.413 1.128.847.282 0 .847 1.695.847 1.696 0 2.543.564 2.826 0 .282-.565 0-1.129 0-1.411 0-.282-.282-.847-.848-1.411-.566-.564-.848-.846-1.696-.846-.847 0-.564.564-1.412 0-.847-.565-.847-.283-.847-1.129 0-.677-.377-.659-.566-.564h-.565c-.565 0-1.129-.565-.847-.847.226-.226.282-.658.282-.847 0-.188-.055-.564-.282-.564-.283 0-.282-.282-.848 0-.565.282-.281.282-.847.564-.566.283-.565.283-1.13.283-.452 0-1.696-.189-2.261-.283-.094-.094-.282-.338-.282-.564v-.847c-.094-.094-.283-.338-.283-.564v-.846c0-.565.001-.565-.565-1.129l-1.13-1.129c-.226-.226-.66-.47-.848-.564l-.564-1.411c-.095-.188-.397-.508-.849-.282-.564.282-1.694 0-1.977.282-.282.282 0 .564-1.13.282s-3.39.282-1.977-1.129c1.13-1.128 1.789-1.599 1.977-1.693.189 0 .509-.056.283-.282-.283-.282-.848-.282-1.413-.564-.565-.282-.565 0-1.13-.282a12.828 12.828 0 0 0-1.413-.565c-.094.094-.282.113-.282-.564v-1.975c.094-.282.395-.847.847-.847.565 0 .848 0 .848-.564s-.283-.564-.848-1.129c-.565-.564-.565-.846-.565-1.129 0-.282 0-.846.565-1.128.565-.282.283-.565 1.13-.565 2.26 0 2.543 0 2.26-.564-.225-.451-.847-1.505-1.13-1.975l.848-1.693 1.13-1.129 1.13.282 1.13.847v2.539c0 .226.377.847.566 1.129l.282.564c.094.283.338.847.564.847.284 0 1.131.564 1.414.282.678-.451 1.036-1.317 1.13-1.693l.282-.847c-.094-.188-.282-.62-.282-.846 0-.282-.283-.564-.283-.847 0-.225-.376-.658-.565-.846v-1.411c.189-.094.566-.339.566-.564 0-.283.28-.565.564-.565h.848c.848.282.847 1.129 1.13 1.129.226.226.659.282.847.282l1.13-.846v-.565c.095 0 .284-.113.284-.564 1.355.677 2.07.658 2.26.564.188-.094.565-.338.565-.564 0-.226.188-.658.282-.847h.283c1.355.678 2.071.659 2.26.565 0-.188.056-.621.282-.847.283-.282-.282-.282 0-.846.283-.565.283-.847 1.13-.847.848 0-.565-.564 1.413 0 1.582.452 1.978.941 1.978 1.129h.847l.848-.847.282-.282.848.282.283.282c.188.189.621.509.847.283.283-.283.565 0 .848-.283.282-.282.565-.564.847-.564.226 0 .471-.376.565-.564.095-.188.396-.621.848-.847.565-.282.282 0 .848 0 .847.282.847.282.847.847 0 .564 0 .564-.282 1.128-.283.565-.283.847-.565 1.129 1.13.847 1.13 1.411 1.695.847.565-.565 1.13-.847 1.13-1.129v-2.822c0-.094.113-.338.565-.564.565-.282.282-.564 1.13-.564.848 0 .848-.565 1.695 0 .678.451 1.224.94 1.413 1.128.188.188.678.508 1.13.282.565-.282 1.13-.282 1.413-.846.282-.565.565-.565.847-1.129.283-.564.283-.564.565-.846.283-.283.283-.283.565-.847 3.39.847 3.673 1.411 4.238.847l1.978-1.976h1.978l.847 1.129 1.13.564H71.43l.565.565.282.282h.848c.226 0 .659-.188.847-.282l.283-.565.565-.564c.188-.188.565-.621.565-.846 0-.226.377-.283.565-.283.188-.188.621-.564.847-.564.283 0 .566-.282.848 0 .226.226.094 1.035 0 1.411l-.282 1.129v1.411h.847l.565-.565h.848v.283H81.317l.283-.283.847-.282 1.13-.282h.565c.189-.094.622-.226.848 0 .282.282.282.565.565.847.282.282.565.846.282.846-.226 0-.659.376-.847.564-.094.094-.34.282-.565.282H81.6c-1.583 0-2.543 1.129-2.826 1.693v1.129l.565.565.565.282h.565l.848-.282.283-.282h.847l.848-.283.282-.282h.848c0-.094.113-.282.565-.282.452 0 .753.188.847.282.189.188.566.621.566.847V240.526l.564.564.566.282h1.13c.094.094.339.282.565.282.282 0 .847.565 1.13.847.282.282 1.13.847 1.412.564.227-.225.848-.47 1.13-.564-.094 0-.225-.056 0-.282.283-.282.848-.847.848-1.129 0-.282 0 0 .283-.564.226-.452 1.036-.753 1.412-.847 0-.094.113-.225.565 0 .565.282.565 0 .848.847.282.846.565.282.565 1.128 0 .847-.283.847 0 1.411.283.565.565.283.565 1.129v2.257c0 .283.283.283.283.565s.565.564.847.564c.283 0 .283.565.848-.564s1.13-1.411 1.13-1.693c0-.282.565-.847.847-1.129.226-.226 1.036-.846 1.413-1.129h1.413l.565.565h1.13l.565-.565h.565c.904 0 1.318.377 1.413.565l.565.564c.226.226.659.47.847.564.094.189.339.452.565 0 .283-.564.283-1.975.565-2.257.283-.282.565-.564.283-.847-.283-.282 0-.282-.848-.282-.847 0-.847.282-1.412.282-.678-.225-1.036-.846-1.13-1.128l.847-1.411 1.13-.282c1.13-.282 1.413-.282 1.695-.565.283-.282.848-.846.848-1.129 0-.225.188-.658.283-.846.188-.188.508-.677.282-1.129-.282-.564-1.413-1.128-1.695-1.41-1.413-.283-1.695-.282-1.978 0-.282.282-.565.846-.847.846l-1.13-1.129c.094-.188.169-.508-.283-.282l-1.13.565c-.565.282 0 1.975-1.13.846l-1.413-1.411c.094-.094.17-.395-.282-.846-.565-.565-1.413-.847-1.696-.847-.847 0-1.412.564-1.13-.282.226-.677.848-1.035 1.13-1.129 0-.094-.169-.338-.847-.564-.848-.282-.283-.564-1.13-.282-.678.225-1.413.094-1.695 0 .094-.188.17-.621-.283-.847-.565-.282-.848-.282-1.13-.282-.226 0-.66.188-.848.282l-.565.564c-.282.283.283.283-.565.283h-1.977c0-.188-.057-.621-.283-.847-.226-.226-.66-1.223-.847-1.693 0-.094-.114-.339-.566-.564-.565-.283-.847-.282-.847-.847 0-.564-.283-.846-.848-.846s-.565.282-.847.564c-.283.282 0 .564-.565.564s-.565-.846-1.13-1.128c-.566-.283-.283-.565-1.413-.565H83.86c-.565 0-.848.565-.848 0 0-.564.848-.282 0-1.128-.678-.678-1.412-1.035-1.695-1.129.283 0 .735-.057.283-.282-.566-.283-.283-.847-1.13-.283-.848.565-1.13.565-1.413.565-.226 0-.471-.565-.565-.847 0-.094.056-.338.282-.564.283-.282.565 0 .565-.847.565-1.128 1.13-1.411 1.978-1.411 1.695.565 1.695.847 2.26 1.129.565.282.565.565 1.413.282.847-.282.565-.282.282-1.411-.282-1.128.565-.846-.282-1.693-.848-.846-.848-.846-1.413-.846-.452 0-1.13.564-1.412.846 0 .189-.114.452-.566 0-.452-.451-1.883-1.316-2.542-1.693-.283-.282-.283-.564-.848-.564s-1.413.564-1.695.564c-.282 0-1.13.283-1.13.565V216.541c0 .677.942 1.975 1.412 2.539 0 .565-.056 1.693-.282 1.693-.282 0 0 .565-1.13 0-.904-.451-1.507-1.128-1.695-1.411 0-.376-.057-1.185-.283-1.411-.282-.282 0-.846-.565-.846s-.847 0-.847.564c0 .565 0 .565-.566.565-1.13 0-1.789-.377-1.977-.565l-1.413-.564c-.188 0-.621.113-.847.564-.283.565-.565 1.129-.565 1.411 0 .282 0 .565-.283.847-.282.282-.282.564-.848.846-.565.282-1.13-.282-1.412-.564l-1.413-1.411c-.565-.564-.565-1.129-1.13-.564-.565.564-.847.282-1.13.564-.283.282-.283.564-1.13.564-.678 0-1.601.377-1.978.565h-1.13l-.282-.847-.283-.846c-.565-.188-1.752-.452-1.978 0-.282.564-.282-.283-.565-.847-.282-.564 0-1.129-.847-1.411-.848-.282-1.13-.846-1.978-.564-.848.282-.848 0-1.413.282-.565.282-1.13 0-1.412.282-.283.282-.848 0-1.13.282-.283.283-.566 0-1.13.283-.566.282-.283 0-1.13.846-.848.847-.566.847-1.13 1.693-.566.847-.283.847-1.13.847-.848 0-.283 0-1.414-.565-1.13-.564-1.412-1.693-1.977-1.128-.848.846-1.978.564-1.978.282s-.282-1.129-.847-.847c-1.13.847-1.13 1.129-1.413 1.411-.283.282-.565.847-.848.282-.282-.564-.282-1.128-.565-1.411-.282-.282-.564-1.693-1.13-1.41-.565.282-.847-.283-1.13.846-.282 1.129-.848.847-.848 1.411 0 .564.566.282 0 1.129-1.13.846-1.695.846-1.695.282 0-.564 0-1.411-.565-1.693-.565-.282-1.695-.282-1.695-.847 0-.564-.848-1.128 0-1.693.848-.564.565-1.128 1.413-1.128.847 0 1.977.282 2.26 0 .282-.283 1.695-1.694.282-1.694-2.486.452-3.672.941-3.955 1.129-.377 0-1.13-.113-1.13-.564 0-.565 0-.565-.282-1.411a6.032 6.032 0 0 1-.283-1.693v-1.975l.283-.847.564-1.129c.189-.282.622-.846.848-.846.283 0 .848 0 .848-.282 0-.226-.754-1.411-1.13-1.976-.189-.47-.622-1.467-.848-1.693-.282-.282-.565-.564-.565-1.128v-2.258c0-.282.283-.564.565-.846.282-.282.848-.282 1.13-.847.283-.564.848-.846.848-1.129 0-.282.282 0 .565-.564.282-.564.847-.564 1.13-1.129.282-.564.565-1.41.282-1.693-.282-.282.283-.282-.565-.282-.847 0-.847.282-1.695 0-.847-.282-.847-.564-1.413-.282-.564.282-1.13.282-1.412.564l-.848.847c-.565.564-.565.846-1.13.846h-1.695c-2.543.565-3.39.565-3.39 1.129 0 .564.565.564-.283 1.129-.847.564-1.413 0-1.978 0s-.282-.565-.847 0c-.565.564-.565.846-.848 1.128-.282.283-.282.001-1.13.283-.847.282-.282.282-1.13.846-.847.565-.565.282-1.695.565-1.13.282-1.695 0-1.978 0-.282 0-1.695-.283-.847-.847.678-.451 1.224-1.129 1.412-1.411l-1.695-1.693c-.188-.188-.395-.621.283-.846.847-.283 0-.565 1.695-.565s1.13 0 2.26.282c1.13.283.848.283 1.978.283.904 0 2.072-.753 2.543-1.129.094-.188.226-.621 0-.847-.283-.282 0-.564-.848-.564s-1.413 0-1.978.282l-1.13.564c-.565.283-.848-.282-.848-.564v-.846l-.282-.283H7.012l-.565-.282c-.094-.094-.282-.338-.282-.564 0-.282 0-.564.282-.564.283 0 .848-.283.848-.565v-.846c0-.283-.565-.565-.848-.565-.282 0-.283 0-.565.282-.282.283-.565.283-.565.565s-.283 0-.565.282c-.283.282-1.13.564-1.13.282s-.848-.564-1.13-.564c-.283 0 0 .282-.565.282s-.848 0-.848-.564c0-.565.283-1.129.565-1.129.283 0 .565-.564 1.13-.564s.283.282.848-.283c.452-.451.565-.94.565-1.128l.282-.565.283-.282v-.846l-.283-.283H3.34c-.094.094-.339.283-.565.283h-.847c-.189 0-.565-.057-.565-.283 0-.282-.565-.564-.283-.846.283-.282.282-.564.565-.564s.565-.283.848-.283c.226 0 .471-.376.565-.564v-1.129c0-.282-.283-.846-.565-.846s-.282-.282-.565-.565c-.282-.282-.848-.564-.565-.846.282-.282 0-.564.283-.564.225 0 .47-.189.565-.283.094 0 .339-.056.565-.282.282-.282.281 0 .564-.282.283-.282.565-.564.848-.564.282 0 .848 0 .848-.283 0-.282.282-.282.282-.564s.282 0 0-.564c-.282-.565.283-.565-.282-.847-.565-.282-.566-.282-.566-.564s-.282-.564 0-.847c.283-.282 0-.282.283-.564s.283-.282-.282-.564c-.566-.283-.848-.283-1.13-.283-.226 0-.66-.376-.848-.564-.188 0-.565-.056-.565-.282 0-.282-.282-.564 0-.564.283 0 .283 0 .565-.283.283-.282.565-.282.848-.564.282-.282.565-.846 0-.846s-.283.282-.848 0c-.452-.226-.565-.471-.565-.565 0-.094.057-.338.283-.564.282-.282.847-.282 1.412-.282s.848.282 1.13 0c.226-.226.66-.471.848-.565 0-.282.056-.846.282-.846.283 0 0-.282 0-.565v-.846c0-.847-.282-.847.283-.847h.848c.847 0 .847 0 1.13-.564.282-.564.282-.564.282-.847 0-.282-.282-.282 0-.564.565-.564.565-.282.848-.564.282-.282.282-.282.565-.282.282-1.694.282-1.694.565-1.976.282-.282.282-.564.565-.564.282 0 .282-.282.848-.282.565 0 1.13.282 1.412.282.283 0 1.13 0 1.413-.564.282-.565.282-.283.282-.847v-.846c-.094-.095-.282-.339-.282-.565 0-.226-.189-.658-.283-.846l-.847-.565h-1.978c-.188-.094-.622-.282-.848-.282h-1.13l-.282-.282c-.094-.094-.34-.282-.565-.282H7.295c-.282 0-.282-.282-.565-.282s-.565.282-.848 0c-.282-.283-.847-.565-.847-.847v-.846c.094-.095.339-.283.565-.283.282 0 .282-.282.565-.282.282 0 .565.282.848.282.282 0 .565.283.847.283.226 0 1.036.188 1.413.282h1.13l.282-.565-.282-.282-.283-.282-.847-.847.282-.282.848-.564h.565l.848.282h.565c.282 0 0 0 .282-.282.283-.282.565-.282.565-.564 0-.283 0 0 .283-.283.226-.225 1.036-.282 1.412-.282.189 0 .565.057.565.282v.847c-.188 0-.339.056.565.282 1.13.282 1.413 0 1.696 0 .282 0 .282 0 .565-.564 0-1.129-.283-.847-.283-1.411 0-.565 0-.847-.282-.847h-1.13c-.905 0-1.696-.188-1.978-.282v-1.129l.282-.846v-.564l-.282-.847c-.094 0-.283-.056-.283-.282 0-.226-.188-.47-.282-.565l.282-.564.848-.282H16.9c.226 0 .47.188.565.282.094.094.34.282.565.282h.565c.283 0 .283 0 .283-.282s.282-.282.282-.564 0-.282.283-.282h.565c.226 0 .47-.189.565-.283.094.094.282.17.282-.282 0-.564.283-1.128.565-1.128.226 0 .66.188.848.282-.094.094-.282.338-.282.564 0 .282-.283.564-.283.847 0 .282.282.282.282.564s-.282.282.283.282h1.13l.283-.282v-3.104c0-.282.282-.282.282-.564 0-.283.283-.283.565-.283h.848c0 .095.056.226.282 0 .283-.282.283-.564.565-.846.226-.452.283-.753.283-.847l.848-.282h2.825c-.189-.282-.565-.903-.565-1.128 0-.283.282-.283-.283-.283H27.354c-.282 0-.565.565-.282-.282.283-.846.565-.846.848-.846h.565c-.095 0-.226-.057 0-.283 0-.451-.377-.752-.565-.846-.095-.094-.227-.282 0-.282H29.897c.283 0 .283-.282.565-.282.283 0 .283-.283.283-.565s.282-.282-.283-.282h-.847c-.848 0-1.413.282-1.413-.282s0-.282.283-.847c.282-.564.565-.564.847-.564.283 0 .283.282.565 0 .283-.282.565-.282.283-.847a1.005 1.005 0 0 0-.848-.564h-.847l-1.13-.282-.566-.282v-.847l.848-.282h1.978c0-.094.056-.226.282 0l.848.846.565.847c.094.094.339.282.565.282.226 0 .66-.376.847-.564v-.565h1.696c.282 0 .282-.564.282-.564-.094-.188-.339-.564-.565-.564-.282 0-.565 0-.565-.282 0-.283-.565-.565-.565-.847 0-.282-.283-.846-.565-.846s-.848-.283-1.13-.565c-.283-.282-.565-.564 0-.846a2.83 2.83 0 0 1 1.13-.283c.094.095.396.283.848.283h1.13c.282 0 .282.564.565 0 .282-.565.565-.283.565-.565s0 0 .282-.846c.283-.847.283-.565.283-1.129 0-.564 0-.846-.283-.846h-2.542c-.566 0 0 .282-.848.282h-1.695c-.565 0-.565-.282-1.13-.282s-.848-.283-1.13-.283c-.283-.282.282-.282.282-.564s.565 0 .565-.282.565-.282.565-.565c0-.282 0 0 .283-.564a3.62 3.62 0 0 1 .565-.846l.282-.283v-.846c0-.282-.282 0-.565-.282-.282-.282-.282-.847-.565-.847-.226 0-.094-.752 0-1.129.189-.094.622-.225.848 0 .226.226.66.283.847.283l.283.564.565.282h.565l.565-.564v-.847l.283-.564h.282l.848.282.282.847c0 .094.057.282.283.282.282 0 1.412.564 1.695.282.226-.226.847-1.034 1.13-1.411l-.282-.564-.566-.564h-1.13c-.226 0-1.224-.189-1.695-.283h-.847l-.565-.282v-.846l.565-.282h.847c.283 0 .565 0 .848-.283.282-.282 0-.282 0-.564s-.283-.282-.565-.282h-.848c-.226 0-.847-.376-1.13-.565 0-.094.056-.338.283-.564.282-.282.847-.282 1.13-.282h1.13c.094.094.339.169.565-.282.282-.565 0-.565 0-.847 0-.282 0 0-.283-.282-.282-.282-.847-.282-1.13-.564-.282-.283-.282-.283-.282-.565s.282-.564.565-.564h.847c.283 0 .565 0 .848.282l.565.564c.094.095.339.283.565.283h.848l.282-.283c-.094-.094-.226-.338 0-.564.283-.282.283-.282.565-.282.283 0-.282-.282.565 0 .848.282.848.847 1.13.282.226-.451.283-1.129.283-1.41l-.283-.283c-.282-.282-.282-.282-.847-.282h-.848c-.094.094-.282.226-.282 0v-.847c-.094.188-.17.452.282 0 .565-.564 1.13-.564.848-.846-.283-.282-.565-.282-.848-.282h-.565c-.282 0 0 .282-.848.282h-1.13c-.188 0-.508-.057-.282-.282l.565-.565.847-1.128 1.13-.283.283-.846.565-.282c0-.188-.056-.621-.282-.847-.283-.282-.848-.564-1.13-.846-.226-.226-.66-1.035-.848-1.411.094-.188.339-.565.565-.565.283 0 .848-.282 1.13-.282.283 0 .283-.282.848 0s1.13.282 1.13.564c0 .283.282.565.565.847.282.282 0 .847.282 1.129.566.564.283.846.566.846.282 0 .565.282.565 0v-2.54c-.095-.282-.227-.846 0-.846.282 0 0-.282.565-.282s.565-.282.847.282c.283.564 0 1.411 0 1.693v.565c0 .282-.282.282 0 .564.283.282.848.564.848.282s.565-.564.565-.846c0-.226.188-.659.282-.847h.283c.848 0 1.413-.282 1.413.282v1.129c0 .846-.283 1.693 0 1.693.282 0 0 .282.282.564.283.283.565.565.848.565.282 0 .847-.282.847-.565 0-.282.565-.846.283-1.128-.283-.282-.283 0-.565-1.13-.226-.902-.283-1.316-.283-1.41-.094-.188-.226-.564 0-.564s.848-.188 1.13-.282c.283 0 .848.056.848.282 0 .225.565.47.847.564h.566c.094 0 .226-.056 0-.282-.283-.282 0-.847-.848-1.411-.848-.564-1.13-.564-1.413-.847-.282-.282-1.13 0-1.13-.564v-.846c0-.226.377-.283.565-.283h.565c.565 0 .848.283 1.13 0 .283-.282.283-.846.283-1.41v-.847c0-.847.282-.847.565-.847h.847c.283 0 .283-.282.848 0 .565.283.565.283.848.283.282 0 0 .564.565 0 .565-.565.847-1.13 1.13-1.13.282 0 0 .283.565.283s.282 0 .565.282c.282.282.282.565.282.847 0 .282.283-.282 0 .564-.282.847-.282.847-.565 1.129-.282.282-.282 0-.565.564-.282.565-.565.564-.282.847.282.282.282 0 .565.282.282.282.282.282.847.282H60.41c.283 0 0-.282.283-.282.226 0 .847-.188 1.13-.282h.847l.283.564-.283.564-.565.565-.282.564v.282c0 .282.282.282 0 .565-.283.282-.283.282-.283.564v.847c0 .094-.056.282-.282.282-.283 0-.283.282-.565.282-.283 0-.565 0-.565.282s-.283 0-.283.282-.565.847-.565 1.129c0 .564-.282.564-.282.847.282.846 0 .846.565.846s.847.282.847 0 .283-.282.283-.564c0-.226.376-.659.565-.847l.282-.282h.565c.565 0 .848 0 .565.282-.282.847-.282.565 0 .847.226.225.66.282.848.282h.565c.848.846 1.13 1.129.848 1.41 0 1.13-.283 1.412.282 1.412s.283 0 1.13-.283c.848-.282 1.413-.564 1.413 0 0 .565 0 .565-.848.847-.847.282-.565.282-1.13.564-.565.283-.282-.564-.565.565.848 1.411 1.413 1.411 1.413 1.411 0-.188.056-.565.282-.565.283 0 .565-.282.848-.564.282-.282.565-.282.847-.564.283-.283.566-.847.848-1.13.226-.225.283-.47.283-.564l.282-.282.565-.564.565-.564c.094 0 .283-.057.283-.283 0-.225.188-.658.282-.846.094 0 .17-.057-.282-.282a3.619 3.619 0 0 1-.848-.565l.283-.846c.094-.094.339-.282.565-.282.282 0 1.13-.283 1.13 0 0 .225.188.47.282.564h.565v-1.693c0-.564 0-.565.283-.847.283-.282.283-.282.848-.282s.847-.282 1.13 0c.282.282.565-.282.847.282.283.565.283.283.283.847 0 .564.282.282 0 .846-.283.565-.283.283-.283.847v.847c.283 1.693.565 1.693.848 1.693h.847c0-.095.057-.34.283-.565.282-.282.282-1.128.282-1.128 0-.189.057-.452.283 0 .282.564.565.564.565 1.128 0 .565-.282.565-.282.847 0 .282-.283 0 0 .564.282.564 0 .564.565.847.565.282.565.564.847.282.283-.282.283-.565.283-1.129v-.846c0-.189.056-.621.282-.847.283-.282.565-.282.848-.282.847 0 .282 0 1.13.282.678.226 1.036.282 1.13.282V95.77c-.094-.094-.282-.339-.282-.565v-.564c.282-.564.847-.564 1.13-.564h1.412c.094 0 .283-.057.283-.283 0-.282.282-.282.282-.564s0-.564.283-.564c.282 0 .847-.565 1.412-.565.566 0 .283.282.566-.282.282-.564 1.13-.564.282-.846-.848-.282-.283-.565-1.13-.282-.848.282-.565 0-1.13.282s-.565.846-1.13.564c-.565-.282-.565-.282-.848-.564-.282-.282-.282-.565-.282-.847v-.846c0-.283 0-.282-.283-.847-.282-.564-.282-.282-.565-.847-.282-.564-.848-.564-.282-.846.564-.282.847-.847 1.695-.564.847.282 1.13.282 1.412.282.283 0 .05.282.59-.564.54-.847 1.105-.283.823-1.13-.283-.846.282-.846-.848-1.128-1.13-.282-1.977-.564-1.977-.847 0-.282.282-.564.847-.846.565-.282.283-.282.848-.564a2.83 2.83 0 0 1 1.13-.282l.282-.565-.565-.564-.565-.282-.565-.283-.282-.564c-.094 0-.226-.056 0-.282.226-.226.659-.47.847-.564h.565c.848.846.848 1.128 1.13 1.128.227 0 .283.188.283.282.188 0 .565.057.565.283 0 .282-.282.564.283.564s1.13.282 1.13 0V79.12c0-.094.056-.282.282-.282.283 0 .848-.282 1.13-.282.226 0 .848-.188 1.13-.282-.094-.094-.17-.226.283 0 .565.282.565.564.848 0 .226-.452.47-1.129.565-1.411 0-.094.056-.282.282-.282h.565c.283 0 0 .282.283.564.282.282 0 1.41.282 1.693.283.282 0 0 .283.564.226.452.659.753.847.847.189-.094.565-.339.565-.564 0-.283-.282 0 0-.565.283-.564 0-1.129.283-1.129.848 0 1.13.283 1.13.565s.283.846 0 1.129c-.282.282-.282.282-.282.564s-.848.564 0 .847c.847.282.565.564 1.13.282s.847.564 1.13-.847c.282-1.41.282-1.129.282-1.693 0-.451.189-.94.283-1.129-.094 0-.283-.112-.283-.564 0-.564-.282-.564-.282-1.129 0-.564.565-.282-.283-.846-.847-.565-1.13-.565-1.412-.847-.283-.282-.565.282-.565-.564v-1.693c.847-.847 1.13-.565 1.412-.847.283-.282.848-.564 1.13-1.128.283-.565.283-.565.283-1.13 0-.564-.283-.564 0-1.128.282-.564.282-1.129.565-.846.226.225.659.282.847.282h.283l.282-.565c.283-.564 0-1.128.566-.846.847.564 1.13.564 1.412.846.226.226.659.283.848.283-.094-.282-.17-.79.282-.565.565.282.565 0 .848.565.282.564.282.564.847.846.566.282 1.131.282 1.413.282.283 0 .283-.282.283-.282V66.14c.565-.564 1.412-.564 1.695-.564.226 0 .659-.188.847-.282.189 0 .565-.113.565-.565v-.846c0-.283.283.282-.282-.283-.565-.564-.283-.846-.848-1.128-.565-.282-.847 0-1.412-.282s-.283 0-1.13-.282c-.848-.283-.283-.283-1.131-.565-.847-.282-1.13 0-1.412-.564-.565-1.129-.565-1.693-.565-1.976 0-.282-.283-1.128.565-1.128.678 0 1.036-.188 1.13-.282l.282-1.13.283-.563v-.565l-.565-.846c-.094-.188-.226-.565 0-.565.282 0 .282-.564.565-.564s.565-.282.848 0c.282.282 1.13 0 1.13.282 0 .226.565.47.847.565.283.188.848.508.848.282 0-.282.282-.565.282-.847 0-.282-.282-1.129-.565-1.129-.282 0-.282-.31-.847-.564-.565-.253-1.13-.564-1.413-.846-.282-.283-1.13-.283-1.413-.847-.282-.564-.565-.564-.847-.846-.283-.283-.565-.283-.565-.847V46.67c.282-.565 0-1.129.565-.847.565.282 1.413.282 1.413.565 0 .282 0 0 .282.846.283.847.283 1.411.565 1.411.226 0 .659.376.848.564.094.189.339.565.565.565.226 0 .659.188.847.282.189-.094.565-.339.565-.564 0-.283.283-.847.283-1.411 0-.565-.283-.847 0-1.129.282-.282.282-.282.565-.847.282-.564.282-1.41.848-.846.565.564 1.13.282 1.13 1.41 0 1.13-.283 1.412-.283 2.258 0 .847 0 .564.283.847.282.282.565-.282 1.13-.565.565-.282.282-.282.847-.282s1.695.847 1.978 0c.283-.846 0-1.128-.283-1.41-.282-.283-1.13-.565-1.13-1.13 0-.564-.565-.846-.282-1.128.282-.282 0-.564.565-.846.565-.283-.283-.847 1.13-.283 1.413.565 1.695 1.129 1.978 1.411.282.282 0 .282.282.564.226.226.659.283.848.283.094 0 .282-.113.282-.565v-1.128c-.226-.678.283-1.788.565-2.258 0-.094.057-.226.283 0 .282.282.565 0 .848.282.282.282.847.565.847.847 0 .282 0 .282.283.564.226.226.847.47 1.13.565.094.094.339.225.565 0l1.13-1.13c.094 0 .339-.056.565-.281.282-.283.848-.283.848-.847v-.846c0-.565-.283-1.13-.283-1.411 0-.282-.565-.282-.848-.282-.282 0-.847.282-1.412-.283-.565-.564-.565-.282-.848-.846-.282-.565.283-.565-.282-.847-.565-.282-.565-.282-1.413-.282-.848 0-1.695.564-.848-.282.848-.847.566-1.129 1.131-1.411.452-.226.753-.282.847-.282l.283-1.129-.848-.282c0 .094-.113.226-.565 0-.452-.226-.753-.847-.848-1.129.095-.188.283-.62.283-.846 0-.283.283 0 .565-.283.283-.282 1.413-.282.848-1.128-.565-.847-.848-.847-.848-1.411 0-.564 0-.847.848-.847.847 0 .847-.282 1.13.283.282.564 0 .846.565 1.128.565.282 1.412.847 1.695.282.282-.564.282-1.128.282-1.41 0-.283.283-.283.566-.283.282 0 .565 0 .565.565 0 .564-1.413.564 0 .846 1.412.282 1.695 0 1.977-.564.283-.564.283-.564.565-.564.283 0 .283 0 .283.564v1.41h.847c.283 0 1.131-.281 1.413-.846.283-.564.565-1.128 1.13-1.128s0-.847 1.413-.283c1.412.565 1.412 2.258.565 3.104-.848.847-.848.565-1.413 1.411-.565.847-.847.847-.847 1.411v1.129c0 1.129-.283.282 0 1.41.282 1.13-.283 1.694.565 1.694.678 0 1.036-.377 1.13-.565l.282-.846v-.847c0-.282.283-.846.283-1.128 0-.283 0-.283.282-.565l.848-.846c.452-.452.942-.565 1.13-.565.094.095.339.283.565.283.283 0 .565-.283.565.282 0 .451.189 1.128.283 1.41 0 .095-.057.34-.283.565-.282.282-.565.846-.847.846-.283 0-.848 0-.848.283 0 .282-.282.564-.282.846 0 .282 0 .282.282.847.283.564 1.13.846 1.413.846h1.13c.565 0 .847-.282.847-.564s-.282-1.129-.282-1.693v-1.411c0-.282-.283-.847 0-1.129.226-.225 1.036-.47 1.412-.564h.848l1.13.282.283-.282.565-.282.565-.282.565.282.282.282v1.411c0 .226.189.47.283.564H152.232c.282-.094.904-.226 1.13 0 .282.282.847 0 .847.565 0 .451-.188.752-.282.846-.094.188-.226.564 0 .564.282 0 .282 0 .565.283.226.225.282.658.282.846v.565c0 .282.283.564 0 1.128-.282.564-.565.847-.282 1.129.282.282.282.282.565.282.282 0 0 .282.565 0s.565 0 .565-.564c0-.565.282-.565.282-.847 0-.282.283-.282.566-.282.282 0 .565.282.847.282.226 0 .471.188.565.282 0 .094.113.282.565.282.565 0 1.13.283 1.13 0 0-.282.565-.564.848-.564.226 0 .659-.376.847-.564l1.413-.282.565-.847.428-.846.42.282h.565V36.794c.094-.094.339-.283.565-.283.282 0 .565 0 .565.282 0 .226.377.47.565.565.188.094.622.17.848-.282.282-.565.295-1.129.995-1.411.7-.282.7-.565 1.265-.565s.847.283.847.565 0 .564-.565 1.129c-.565.564-1.13 0-.565.846.565.847.848 1.129 1.695 1.129.848 0 .283-.847 1.978-.565 1.978.847 2.26 1.13 1.695 1.694-.565.564-.702.846-.847 1.128a2.137 2.137 0 0 0-.283 1.129c0 .564-.282.846.283.846s.565.283 1.13 0c.565-.282 1.13-1.41 1.695-1.693.565-.282 1.13-.846 1.413-.564.282.282.542.282.695.846.152.565.152 1.13.435 1.13.226 0 .847-.189 1.13-.283-.189-.188-.396-.62.282-.846 1.13.564 1.695 1.693 1.978.564.283-1.129.283-1.411.565-1.411.283 0 .848-.564.848.282 0 .847-.283.565-.283 1.411 0 .847 0 1.693.565.847.565-.847.565-1.411 1.13-1.411s.565-.282.848.282c.282.564.282.564.282 1.129.283 1.128 0 1.693.848.846.848-.846 1.413-.564 1.413-.846 0-.283.565-.282 0-.847l-.848-.846c-.282-.283-.282-.565-.282-1.13 0-.563 0-.846.565-.846s.708-.564 1.13-.282c.421.282.847 0 1.13 0 .226 0 .847-.376 1.13-.564 0 .094.113.17.565-.282.565-.565.282-.565.848-.847.565-.282.847-.564 1.13-.564.282 0 .847-.282 1.13 0 .282.282.847.846.847.282 0-.564.565-1.411-.565-1.693-1.13-.282-.847-.282-1.695-.565-.847-.282-1.978 0-1.13-1.128.678-.903 1.036-1.129 1.13-1.129.188 0 .509-.113.283-.564-.283-.565-.848-.565-.283-1.129.565-.564.848-.564 1.413-.847.565-.282 0-.282.847-.282.848 0 1.13 0 1.413-.846.282-.847 0-.847.565-1.129.565-.282 1.13-.846 1.978-.564.847.282.847 0 1.412.846.452.678 1.884-.282 2.543-.846v3.385l1.695.848c.189.188.735.169 1.413-1.411s.659-3.104.565-3.669c-.471-.376-1.243-1.241-.565-1.693 3.616-.903 5.085-.188 5.368.282v1.411c.282.188.678.734 0 1.411-.848.847 1.13-1.129 2.26-1.41.904-.227.377 1.222 0 1.974v.847c.094.282.452.846 1.13.846h3.391v-3.668c-.377-.47-.905-1.467 0-1.693.904-.226 3.013.094 3.955.282v1.411c0 .677 1.318.847 1.978.847l1.13-.847h1.13l2.825 1.411.565-.564v-2.54h2.825l.566.847c.188-.283.621-.678.847 0 .283.846.283.846.848.846s.847-.282 1.13-.846c.282-.565.565-.847 0-1.411a134.058 134.058 0 0 0-2.825-1.976l-.566-1.128c-.376-.47-1.017-1.468-.565-1.693 1.131-1.129 1.131-2.258 1.978-1.129.848 1.129.848 1.129 1.413 1.693.565 1.693.847 2.258 1.13 2.258.282 0 .565.564 1.13.564h1.695l.565-1.41c-.188-.095-.565-.396-.565-.848V17.606c0-.283.565-1.13.565-1.411 0-.283.283-.847.848-1.129.565-.282.282-.564 1.412-.564h2.826c1.13 0 1.13-1.13 2.26 0 1.13 2.54 1.13 2.257.565 3.104-.565.846-1.13.281-.565 1.41 1.413 2.258 1.13 2.822 1.978 2.258.847-.565.847-1.129 1.977-1.129 1.413.564 1.695.565 1.13 1.411-.565.846-.565 1.411-1.13 1.411-.452 0-.941.564-1.13.846-.377-.094-.904-.113 0 .565 1.13.846.565 1.41 2.26 1.41h2.543c.848 0 1.13.848 1.413-.564.847-2.822.847-3.386 1.412-3.668.848-1.41.565-1.975.565-2.54 0-.564-1.412 0 .848-1.41 2.26-1.411 3.39-1.976 3.39-1.411v2.257c0 .564-.847.564-.847 1.129v1.128c0 .847-.283 1.412-.565 2.258.565 5.361-.565 5.643.565 6.208 1.13.564 1.977 1.41 1.977.846s-.565-1.975 0-1.975c2.261.564 1.696 1.693 3.391.564 1.356-.902 1.883-2.257 1.977-2.821v-.847c0-.451-.753-.94-1.13-1.129-.282-.188-.847-.733-.847-1.41 0-.847-.565-1.13-.565-1.694 0-.564-.283-2.257.565-2.257h3.955c.452 0 2.449.376 3.39.564.471 0 1.583.113 2.261.565.678.451 2.542.94 3.39 1.128l.848-.564c.282-.376.96-1.129 1.412-1.129.452 0 1.319-.376 1.695-.564.754-.188 2.487-.339 3.391.564 1.13 2.54.847 1.976.847 3.387 0 1.128 1.13 1.41 1.695 1.41-.188.283-.226.678 1.131 0 1.695-.846 1.412-1.692 2.542-.846s1.13.846 1.695 1.41c.453.452 2.072 2.258 2.826 3.105h1.695l1.13-1.129 1.413-1.129c.376-.282 1.243-.846 1.695-.846.565 0 1.13.282 1.412.846 0 2.258-.282 2.258-.847 3.104-1.13 1.976-1.695 1.693-1.413 2.822.283 1.129.848 1.129.848 1.693 0 .564.847.564 1.412.564.566 0 .848-.564 1.696 0 .847.565 1.13 0 1.13 1.13 0 1.128 0 .846-.565 1.692 0 2.54-.848 2.822.565 3.386 1.412.565 2.825 1.129 3.673.847.847-.282.282 0 1.977 0s2.261.564 3.108.846c.848.282.565-.846 1.413.565.847 1.41.565.564.565 2.257.847 3.668 1.695 3.95 2.26 3.668.565-.282 1.695-.564 2.543-1.41.847-.847.565-1.976 2.26-1.411 1.695.564 3.108.564 1.13 1.975-1.978 1.41-2.26.846-2.543 1.975-.226.903.848 1.317 1.413 1.411 0-.376.113-1.016.565-.564.565.564.565 1.41.565 1.693 0 .282-.282.564.565.846 2.26 0 2.26.282 2.825-.846.565-1.129.565-.847.848-1.693.283-.847.283-1.976.848-1.976s1.13-1.41 1.695-1.41c.565 0 .847.564 1.412 0 .565-.565 1.978-1.411 2.543-1.411h2.26c1.13 0 1.696-.847 2.826-.847 1.13 0 2.825-.846 3.39 0 .565.847 1.13-.564 2.825.847 2.825 1.975 3.673 1.975 3.391 3.386-.283 1.41-.283.846-1.131 1.975-.847 1.129-1.695-.282-.847 2.54 3.955 3.668 4.238 3.95 4.52 4.797.283.846 0 .282 0 1.693v3.104c0 1.128-.847 1.41-1.13 1.975-.282.564-1.977.564-1.412 1.41.565.847-.283.565.847 1.412 1.13.846.565.846 2.26 1.693 1.356.677 3.014.846 3.673.846.094-.282.396-.846.848-.846.565 0 .565-1.129 2.543-.847 1.977.282 3.672.847 4.237.847s.565 0 2.543.846c1.978.847 3.108 1.411 3.956 1.693.847.282 1.13-.846 1.977 0 .848.847 1.13.565 1.413 1.976.282 1.41-.283 1.128 1.13 2.821 1.413 1.693 1.695 2.258 2.543 2.54.847.282.565 1.129 1.977 0 1.413-1.129.848-1.693 3.391-1.41 2.542.281 3.108.281 3.955.846.848.564 1.413.564 2.825.564 1.131 0 1.79-.376 1.978-.564.094-.283.339-.96.565-1.411.226-.452.094-2.07 0-2.822-1.318.094-3.164 0 0-1.129 3.956-1.41 3.956-1.693 5.368-.846 1.13.677 2.92.282 3.673 0 .471-.188 1.639-.565 2.543-.565.904 0 2.26-.564 2.825-.846h.848l2.26-.847 1.13-.846h.848c.188.47.452 1.467 0 1.693.847.846 1.977 0 2.542 0 .452 0 1.884-.565 2.543-.847l1.978-1.693 1.412.847c.095 0 .057.169-.847.846-1.13.847-1.978 0-2.543.847a15.468 15.468 0 0 0-.848 1.41c.377.471 1.244 1.412 1.696 1.412.565 0 1.412-.565 2.542 0 1.13.564 1.696 0 1.978.564.283.564.283 1.129.848 1.41.565.283 1.412-1.41 1.977.283.565 1.693.848 1.975 0 2.54-.847.564-1.13 1.975-1.977 2.54-1.978.564-1.413-1.976-2.826.564-1.412 2.54-1.695 2.821-2.542 3.386-1.696.846-1.696.282-2.543.846-.848.564-.848 1.129-.848 1.411 0 .282-.847.282.848.847 2.543.564 3.108 0 3.673 0 1.412 0 1.412.282 1.412.846v1.411c0 .564 0 1.975.565 2.257.452.226 2.261 1.788 3.108 2.54l1.695 1.693 1.978.847 2.543.846h1.978c.282 0 1.977-.564 2.26 0 .282.564 1.412 1.129 1.13 1.693-.283.565-1.13 1.129-1.695 1.411-.565.282-1.695 0-1.695.847 0 .846 0 1.975.565 2.539.565.565 1.695 1.129 2.825.565 1.13-.565.565-.565 2.543-.565 1.582 0 2.354.376 2.542.565l2.826 2.539c.188-.376.621-.903.847 0 .283 1.129 1.413 1.693 0 1.975-1.412.283-2.26-.564-2.543 0-.282.565-1.695 0-.565 1.129 1.13 1.129 1.413 1.129 2.261 1.975.678.678.847 1.599.847 1.976-.471.188-1.638.564-2.543.564-1.13 0-1.977-.564-2.26 0-.282.564-.847.282-1.412 1.693s-.848 1.975-.848 2.257c0 .283-.848.565 0 1.411 2.26 1.693 2.825 1.411 3.955 1.976 1.13 1.693.565 1.128-.565 1.975-1.13.846-1.695-.282-1.13 1.975.565 2.257-.565 1.411-.847 2.257-.283.847.282.847.847 1.694.565 1.975 1.13 3.103-.847 3.103-1.978 0-1.413.565-3.108.847-1.695.282-2.26-.847-1.695 1.129.565 1.975 1.13 2.257.565 2.822-.565.564-1.13.282-1.695.846 0 1.411.565 1.129 1.13 1.693.565.564 1.695.282 2.542.847V151.922l-.847.846c-.189-.094-.565-.112-.565.565 0 .846.565 1.128.565 1.693 0 .564 0 1.693-.565 1.693s-.848-.564-2.26-.847c-1.978.847-1.131 1.976-2.261 2.258-1.13.282.283-.282-1.977-.565-2.261-.282-2.543 0-2.543.565 0 .564-.283.564-.848.564s-.847-.564-1.695-.564c-.847 0-.847.564-1.695.564-.848 0-1.413-1.129-2.26-.564-.848.564-1.413.564-1.695 1.411-.283.846-.283 1.128-.848 1.975-.565.846-.565 1.411-1.978 0-2.825-1.411-3.673-1.693-3.955-.847-.283.847-.565.565 0 1.693.565 1.129 2.825.565 3.39 1.411 0 1.411-1.412 1.129-1.977 1.411 0 1.975.565 2.54 0 3.104-.452.452-1.319 0-1.696-.282-.188-.282-.565-.959-.565-1.411 0-.564.283-1.411-1.13-1.411-1.412 0-1.13-1.411-2.26 0s-1.695 1.129-1.978 1.975c-.282.847-1.13.565-.565 1.693.565 1.129 1.695.565 2.543 2.258 0 2.822-1.413 2.539-1.978 3.104-.565.564-2.26 0-1.13 1.129 1.13 1.128 2.26.846 3.108.846.848 0 2.26.282 2.26.847 0 .564-.565.846-1.13 1.411-.565.564-1.13.846 0 1.41 1.13.565 1.695.283 3.108.565s2.26 0 2.825 0h1.978c.452 0 1.318.188 1.695.282.094-.094.283-.057.283.846 0 1.129 0 .847 1.695.847 2.26 1.411 1.977 1.693 1.412 2.257-.452.452.377.753.848.847 0-.376.17-.903.848 0 .847 1.129 2.542.282.847 1.693-1.356 1.129.565 1.599 1.695 1.693-.094 0-.169.056.283.282.565.282-.283-.564 1.412.565 2.939-.452 4.427-.753 4.803-.847 0-.47.226-1.129 1.131 0 1.13 3.104 0 4.515 0 5.361 0 .847.565 1.129 1.695 2.258 1.977 1.411 1.412-1.129 2.825 1.411 1.413 2.539.565 2.539 1.413 3.668 2.542 2.822 3.107 4.797 3.673 3.104a29.16 29.16 0 0 0 .847-3.104c0-.282.113-.959.565-1.411.565-.564.283-1.693 1.413-.564 1.13 1.129 1.13 1.411 1.13 2.539v1.693c3.108 2.54 3.673 3.104 4.803 2.54 1.13-.564 1.978-.846 2.26-1.693.283-.847.283-2.54 2.26-2.54 1.978 0 3.108.847 3.108 1.693 0 .678-.942 2.352-1.413 3.104l-1.695 1.411-.847 1.129h1.977l.565.564c-.094.188-.565.678-1.695 1.129-1.412.564-1.412.564-2.26 1.129-.678.451-1.224 1.505-1.413 1.975-.188.188-.452.621 0 .847.565.282.848.846 1.413 1.128.565.282 1.13.282 1.413 0 .282-.282.847-1.128 1.977-1.128 1.583.903 1.036 1.881.565 2.257-.282.094-.678.451 0 1.129.848.846.283.846 1.413 1.128.904.226 3.955-1.034 5.368-1.693 0-.188.283-.564 1.413-.564 1.412 0 3.108 1.129 3.39 1.129.283 0 .565.564.565 1.128 0 .565-1.413 1.411-1.695 1.976.565 1.975 3.955 1.975 5.085 2.257 1.413.564 1.696 1.129 1.131 1.411-1.131 1.411-1.131 1.411 0 1.693 1.13.282 1.695.564 2.26.564.565 0-.283-1.693 1.695.283 1.978 1.975 1.695 2.821.848 3.103-1.696.847-1.978-.564-2.543 1.411 0 3.386 1.412 4.233 0 4.797-1.413.565-3.391.847-3.391 1.129v2.54c0 .846-.565 0 .566 1.411 1.13 1.41 1.412 2.821 1.412 3.386-1.413.846-2.26.564-3.108.564-1.356.677-2.448 1.035-2.825 1.129l-3.39-1.693-1.413-.847-1.695-.846-.848-1.693c-.376-.189-1.243-.452-1.695 0-.452.451-2.26-.753-3.108-1.411l-1.977-.565-1.413-1.128c-.188-.377-.678-.903-1.13 0-.848 1.693-1.13 3.104-.565 3.104s0 0 0 .846c-.848 1.693-.283 3.386-1.695 1.693-1.413-1.693-1.695-2.539-2.26-2.539-3.391 2.031-4.803 1.975-5.086 1.693.188-.565.339-1.524-.565-.847v5.361c0 1.129 1.413 1.129 0 1.976-1.413.846-2.26 0-2.825 0-.452 0-.942-1.317-1.13-1.976v-1.128h-1.131c-3.672 3.104-3.672 2.822-3.955 3.95-.282 1.129-1.13 1.975-1.695 1.975h-1.978c-.847 0-1.412.565-1.412 1.129-.565 4.233-1.696 3.386-2.261 3.386-.565 0-.847 0-1.13.847-1.977 1.129-3.108.846-3.39 0-.283-.847 0-2.822 0-3.104 0-.282-.565-2.258-1.13-1.693-.565.564-1.13-.565-1.695.564-.565 1.129-3.108.565-2.543 0 .565-.564.848-.846 2.543-1.693 1.356-.677 2.072-1.223 2.26-1.411.188-.564.565-1.919.565-2.822 0-1.128-1.13-2.257-2.26-2.257s-.848-1.693-1.978 0-1.413 1.129-2.543 1.129h-3.108c-.565 0-1.977-.565-3.39-1.129-1.412-.564-1.978-2.257-3.108-.564-1.13 1.693-2.542 1.693-1.695 2.821.848 1.129.848 1.976 2.825 1.976 2.543 1.411 1.131 1.128 0 1.693-1.13.564.283 0-2.825 0s-3.673-.847-4.803-.847-1.412-.846-3.39-.846h-4.238c-.848 0-1.978.846-3.108.846-1.13 0-1.412-.282-1.695.847 0 2.257 1.13 3.104 1.413 3.668 0 1.975-1.13 2.822-1.978 2.822-.678 0-1.978.564-2.543.846l-3.673 1.693h-2.825c-.188-.188-.621-.677-.847-1.128-.227-.452 1.224-1.693 1.977-2.258l1.695-1.975-1.695-1.411h-1.13c-1.808 0-3.202.941-3.673 1.411-.282-.658-1.017-1.58-1.695 0-2.825 1.975-4.52 3.668-5.933 3.668-1.413 0-3.673 1.693-5.085 1.693-1.131 0-.471 1.505 0 2.258v1.129l1.412 1.128c-.471.377-1.412 1.185-1.412 1.411 1.412 1.693 1.412 2.54 0 2.54h-3.673c-4.238 2.539-3.956 3.104-5.651 3.104-2.486 0-3.673 1.128-3.955 1.693v1.411c-1.695 2.539-2.826 2.539-2.826 3.668 0 .903-.941 2.634-1.412 3.386l-1.13-1.411h-1.13l-2.261 1.411c.754.188 1.809.169 0-1.411-1.808-1.58-2.825-.658-3.107 0v1.411h-1.978l-1.413-1.411c0-.658-.282-1.975-1.412-1.975 0 1.975-1.13 4.797-2.826 3.386-1.356-1.129-2.448-.47-2.825 0h-1.978c.565-.47 1.357-1.411 0-1.411-3.616 0-11.301 3.951-14.691 5.926l-9.041 6.208-6.498 3.95-7.063 5.644-5.933 4.797-3.673 7.337-1.13 7.054-2.543 8.747-2.543 7.055-2.542 4.233v5.079l-.848 3.104-5.368 6.208-2.543 7.336-1.13 6.773-1.413 9.029v31.04l-1.412 11.287 1.412 11.005v21.445l.565 12.698.848 15.238v7.901l1.13 8.465h-25.71Zm18.93-210.222v5.079l4.237 5.361-1.412 5.644-2.825 3.95v34.99l2.825 2.258 1.412 1.411 1.413.846h2.543l1.13-3.668v-4.233l2.543-3.668 1.13-2.822 1.695-3.386.848-2.54 1.13-3.103.565-4.233v-8.465c-.283-.847-1.017-2.709-1.695-3.387-.679-.677-1.978-2.915-2.543-3.95l-2.26-3.386-3.108-3.104-1.978-3.951-2.825-2.821v-3.669l-2.26-.564-.565 1.411Zm7.063-12.98 6.78-1.411 6.498-3.104 5.651-2.257 3.955-1.976 5.933-1.975 3.673-1.411 4.521-3.104 5.368 2.822 3.108 1.129h6.78v5.079l-2.825 1.693v3.95h5.651l-2.826 5.644-2.825 1.129-7.063 2.821-5.368 3.104-4.521 3.104-3.673 4.233-5.933 3.386-1.977 3.951-4.803 5.079-2.826-1.693-3.672-2.822-4.803-6.208-3.673-3.386-1.413-4.797-2.543-5.361 2.826-7.619Zm-2.826-14.674-3.672 2.54v5.362l5.085 2.257h7.346l4.238-2.257 5.933-3.387 4.803-1.128 5.933-3.387 4.238-4.514 5.933-2.258 3.39-3.104 3.071-.846h-6.461l-4.521.846-1.412 1.411-2.261 1.693h-1.977v1.129l-3.956 2.257-1.977-1.128-1.978-.847-1.695.847-1.13 3.386-2.543 1.128c-2.034-.451-4.803-2.445-5.933-3.386l-1.695.847-1.13 2.539-1.13 3.387-2.543.564-2.543.564-1.413-4.515Zm-23.486 11.57 1.13 1.693 1.449 3.104 1.413 3.386c.188.094.621 1.072.847 4.233.226 3.16.283 8.841.283 11.287v4.514l-.565 2.822-1.413 3.104-2.014.847-4.766-1.129-7-1.693L217 302l-2.33-2-1.67-1.628 2.5-1.411 4.5.539h5.752l2.762 2.001 1.94-4.233v-3.104l-1.94-3.386-2.261-2.54-.884-2.821.847-1.694h2.298l1.093 1.129 2.26 1.693 3.108.282 1.45-1.41-.037-3.104-.848-2.822-1.695-2.258 2.543-2.539Zm-29.101-49.871h4.238l2.26-1.411h5.933l3.956-.565 1.695 1.976.847 1.693 1.131-.565 1.412-1.128.848 1.693v1.128h2.825l1.413 1.129 1.695 1.129 2.543.847 2.26.846h1.978l.847 1.975 2.543 1.411 1.695 2.822 2.26 1.975 2.543 4.797 2.26 3.104 1.695 4.797-.565 3.104-3.39.846v-1.975h-1.695l-3.108-.846-1.695-2.822c0-.282.169-.903.848-1.129.678-.226 1.789-.47 2.26-.564v-.847c-1.413-.564-1.413.283-2.26-.564-.848-.847-1.696-1.411-.848-1.975.848-.565 1.695-.282 1.695-1.129-.847-1.129-.847-1.693-1.695-1.693-1.978-.847-1.977-1.693-3.39-.847-1.978-.282-1.978-1.128-2.826-1.693-.678-.451-.848-1.128-.848-1.411.283-.094.566-.282-.564-.282-3.391.903-5.18 1.317-5.651 1.411-.377 0-1.299-.113-1.978-.564-2.26-.847-1.977-1.129-3.107-1.129-1.131 0-1.413-.282-1.978 0-2.26.847-2.826 1.693-3.956.564-.904-.902-2.636-1.881-3.39-2.257v-1.411c0-.282-.565-1.411 0-1.693.452-.226.754-1.035.848-1.411l-.848-1.41-1.977-1.412-2.261-.564h-5.65l-.848-1.129v-2.821Zm59.331 19.752v3.104l1.13 3.668h2.26l.848 1.129h1.412c.283.376.961.903 1.413 0 4.521-1.693 3.956-2.54 4.521-3.386 2.486-3.161 2.919-4.327 2.825-4.515l-2.26-1.129h-2.261l-.847-.564c0-.282-.113-.847-.565-.847-.565 0-.848-.846-1.413 0-.452.678-1.13 1.223-1.413 1.411l-2.26.282H266.618v.847Zm-42.379-45.148 1.977 3.386 2.543 4.797 3.673 4.515c.754 1.222 2.43 3.781 3.108 4.232.678.452 1.978 1.881 2.543 2.54l2.825 1.129 3.955 3.386c.848 1.034 2.543 3.217 2.543 3.668 0 .564 3.108 1.975 3.108 2.822s1.695 4.797 2.825 5.079c.904.226 2.825 2.916 3.673 4.233l1.413 1.975.847-.282.848-2.258.847-1.975.565-4.515.566-5.643 1.13-5.362v-9.029l-1.696-.847.566-1.975 1.13-.847.847-3.104v-7.054l-3.108-1.411-4.803 1.975c.189.094.339.565-.565 1.693-.904 1.129-3.202 1.976-4.238 2.258h-5.65c-.283-.188-.848-.452-.848 0 0 .451-1.695.94-2.542 1.128l-.565 1.411-2.261 2.258c-.565.564-1.751 1.524-1.977.846-.226-.677-.848-1.599-1.13-1.975l-.848-1.129-.565-.846-1.13 1.975c.094.376.113.903-.565 0-.848-1.129-1.13-1.411-1.413-1.975l-.847-1.693-1.413-.565c.565 0 1.187-.112-.848-.564-2.034-.451-2.543-1.693-2.543-2.257l-.847-1.129-1.13-.564v1.693Zm45.769 20.599-2.26 7.054-.565 8.465-.565 4.515h5.65l4.238-.282-.847-3.508-3.391-4.111-1.412-2.257 2.825-2.822v-4.233l-3.673-2.821Zm22.32 0 3.108-2.54 1.13-2.822 4.238-.846 3.39.846 1.413 5.362-2.826 4.797-1.977 1.128-5.368 4.798-2.26 2.539c-1.225-.564-3.673-1.58-3.673-1.129V234.674l-2.261 1.129H284.7l-2.826-2.258-3.107-3.386-1.13-3.386v-2.822l1.695-1.975 1.695-1.129 2.26.565v-3.951l1.413-.564 1.977 1.129.848 1.41 1.413 1.411.565-1.693 1.977-.564.848-.564Zm-75.717 29.064 2.297 3.312 9.851.846h3.993l5.895 4.515 3.674 4.797 3.39 3.951-.848 6.772-12.111-4.233-8.513 1.976-9.569-1.976 1.376-3.668-4.521-3.951v-2.821l2.26-1.129 2.261-1.901-1.376-4.797 1.941-1.693Z"/>
  <path stroke="#000" d="m219.5 235 1 128-.092.031M219 363.5h-1.5l-1.5-.5v-.5l1.5-2 .5-1 .5-1 .5-1m0 6 1.408-.469M219 363.5v-6m0 0 1-.5v-2l-1.5 1-1.5 1.5-.5 1-1 1.5s-1.05.804-1.5 1.5c-.237.367-.086.862-.5 1-.414.138-1-.5-1-.5l-.5-.5.5-1.5-2.5-2.5v-.5l-1-.5-1-.5-1.5.5-.5.5-.5.5-.5.5v2.5l.5.5.5.5.5.5.5.5h.5v-.5s-.062-.315 0-.5c.175-.524 1 1 1 1s.413.238.5.5c.062.185 0 .5 0 .5l-.5 1v3l1 1 1 1.5 1 1 1 .5.5 1v1l.5 1v1l-.5.5v3.5l.5.5h2l.5-.5v-.5s-.276-.724 0-1c.391-.391 1 1 1 1l1 1 .5 1 .5 2v5s.062.315 0 .5c-.087.262-.413.238-.5.5a.695.695 0 0 0 0 .5c.087.262.413.238.5.5.062.185 0 .5 0 .5v6.5s.028.307 0 .5c-.062.432-.405.574-.5 1-.085.381-.194.661 0 1 .217.379.599.328 1 .5.568.243 1.5.5 1.5.5l1.5.5h.5s1.362-.31 1.5-1c.038-.191.062-.315 0-.5-.138-.414-.574-.405-1-.5-.381-.085-.661.194-1 0-.379-.217-.191-.691-.5-1-.309-.309-.691-.191-1-.5-.69-.69-.191-1.543 0-2.5.121-.605.5-1.5.5-1.5l.5-2 .5-1s.453-.884.5-1.5c.015-.195-.003-.305 0-.5.024-1.38.747-2.142.5-3.5-.11-.608-.5-1.5-.5-1.5s-.194-.661 0-1c.217-.379 1-1 1-1s.691-.191 1-.5l.5-.5s.377-.253.5-.5c.175-.349.217-.175 0-.5-.325-.487-.435-.654-1-.5-.421.115-1.5.5-1.5.5h-.5c-.69-.138-1-1.5-1-1.5l-.5-2-.5-1v-2l.5-.5.5-1.5v-1s-1.812-4.347 0-5.5c.521-.332 1.5-.5 1.5-.5l2-.5h1l1-.5.5-.5v-1l-.5-.5H225l-.5.5-1 .5-1 .5-1.5.5-.592.031M219 357.5l.5.5m-4 8c.445-.381 1.675-.487 2 0 .217.325.123.63 0 1-.175.524-.948.974-1.5 1-.804.038-1.111-1.476-.5-2Z"/>
</svg>
