<svg xmlns="http://www.w3.org/2000/svg" width="29" height="27" fill="none">
  <path fill="#005248" d="M24.632 0A3.787 3.787 0 0 0 22.6 6.982l-2.472 8.652a3.743 3.743 0 0 0-2.491.742l-4.567-3.805a3.788 3.788 0 1 0-6.238 1.498L4.15 19.431a3.793 3.793 0 1 0 1.792.651l2.533-5.066a3.78 3.78 0 0 0 3.55-.85l4.422 3.685a3.788 3.788 0 1 0 5.482-1.631l2.472-8.651A3.788 3.788 0 1 0 24.632 0ZM3.798 25.096a1.893 1.893 0 1 1 0-3.787 1.893 1.893 0 0 1 0 3.787ZM9.48 13.258a1.894 1.894 0 1 1 0-3.788 1.894 1.894 0 0 1 0 3.788Zm10.417 8.05a1.894 1.894 0 1 1 0-3.789 1.894 1.894 0 0 1 0 3.79Zm4.735-15.626a1.894 1.894 0 1 1 0-3.787 1.894 1.894 0 0 1 0 3.787Z"/>
</svg>