<svg width="24" height="23" viewBox="0 0 24 23" fill="none" xmlns="http://www.w3.org/2000/svg">
<path d="M11.5342 0C8.40795 0 8.01833 0.0150956 6.79487 0.0668521C5.56637 0.127235 4.73539 0.317727 4.00218 0.602388C3.24596 0.89855 2.60188 1.29176 1.9657 1.93152C1.32522 2.5677 0.928416 3.21178 0.636568 3.968C0.351907 4.70121 0.161414 5.53219 0.101032 6.76069C0.0456811 7.98487 0.0341797 8.37376 0.0341797 11.5C0.0341797 14.6262 0.0492753 15.0158 0.101032 16.2393C0.161414 17.4642 0.351907 18.2988 0.636568 19.032C0.93273 19.7882 1.32593 20.4323 1.9657 21.0685C2.60188 21.709 3.24596 22.1058 4.00218 22.3976C4.73539 22.6787 5.56997 22.8728 6.79487 22.9331C8.01905 22.9885 8.40795 23 11.5342 23C14.6604 23 15.05 22.9849 16.2735 22.9331C17.4984 22.8728 18.333 22.678 19.0662 22.3976C19.8224 22.1014 20.4665 21.7082 21.1027 21.0685C21.7431 20.4323 22.1399 19.7918 22.4318 19.032C22.7129 18.2988 22.9069 17.4642 22.9673 16.2393C23.0227 15.0151 23.0342 14.6262 23.0342 11.5C23.0342 8.37376 23.0191 7.98415 22.9673 6.76069C22.9069 5.53579 22.7121 4.6969 22.4318 3.968C22.1356 3.21178 21.7424 2.5677 21.1027 1.93152C20.4665 1.29104 19.826 0.894237 19.0662 0.602388C18.333 0.317727 17.4984 0.127235 16.2735 0.0668521C15.0493 0.0115014 14.6604 0 11.5342 0V0ZM11.5342 2.07026C14.6043 2.07026 14.971 2.08535 16.1844 2.13711C17.3036 2.18959 17.9132 2.37648 18.3179 2.53463C18.8577 2.74381 19.2351 2.99109 19.6434 3.39508C20.0438 3.79547 20.2911 4.17718 20.5003 4.71703C20.6584 5.12173 20.8453 5.73131 20.8978 6.85054C20.9495 8.06394 20.9646 8.43127 20.9646 11.5007C20.9646 14.5702 20.9495 14.9375 20.8935 16.1509C20.8331 17.2701 20.6462 17.8797 20.4888 18.2844C20.271 18.8243 20.028 19.2017 19.6269 19.61C19.2222 20.0103 18.8369 20.2576 18.3013 20.4668C17.9017 20.625 17.2835 20.8118 16.1599 20.8643C14.94 20.9161 14.5806 20.9312 11.5026 20.9312C8.42448 20.9312 8.06578 20.9161 6.84447 20.86C5.72523 20.7996 5.10775 20.6127 4.70304 20.4553C4.15673 20.2375 3.78221 19.9945 3.3811 19.5934C2.97639 19.1887 2.71905 18.8034 2.52065 18.2679C2.35963 17.8682 2.1756 17.25 2.11594 16.1265C2.07497 14.921 2.05556 14.5472 2.05556 11.4835C2.05556 8.42121 2.07497 8.04669 2.11594 6.8261C2.1756 5.70256 2.35963 5.08579 2.52065 4.68468C2.71905 4.13764 2.97711 3.76385 3.3811 3.35914C3.78149 2.95874 4.15673 2.69996 4.70304 2.49725C5.10775 2.33982 5.71014 2.15293 6.83369 2.09686C8.05356 2.05301 8.41298 2.03719 11.4867 2.03719L11.5342 2.07026ZM11.5342 5.59761C8.26993 5.59761 5.63035 8.24078 5.63035 11.5014C5.63035 14.7657 8.27352 17.4053 11.5342 17.4053C14.7984 17.4053 17.438 14.7621 17.438 11.5014C17.438 8.23719 14.7948 5.59761 11.5342 5.59761ZM11.5342 15.335C9.41504 15.335 7.70061 13.6206 7.70061 11.5014C7.70061 9.3823 9.41504 7.66786 11.5342 7.66786C13.6533 7.66786 15.3678 9.3823 15.3678 11.5014C15.3678 13.6206 13.6533 15.335 11.5342 15.335ZM19.0561 5.36183C19.0561 6.12595 18.4343 6.74272 17.6738 6.74272C16.9097 6.74272 16.2929 6.12523 16.2929 5.36183C16.2929 4.60201 16.914 3.98381 17.6738 3.98381C18.4336 3.98381 19.0561 4.60201 19.0561 5.36183Z" fill="black"/>
</svg>
