<svg xmlns="http://www.w3.org/2000/svg" width="36" height="28" fill="none">
  <path stroke="#005248" stroke-width="1.5" d="M2.073 4.894c.228-.135.477.177.674 0 .11-.1.134-.197.168-.343.036-.151-.04-.248 0-.399.057-.215.2-.283.337-.456.147-.184.17-.387.393-.457.126-.04.222.066.337 0 .096-.054.134-.122.169-.228.034-.105-.058-.19 0-.285.093-.151.282.056.449 0 .235-.08.203-.425.45-.456.185-.024.263.146.448.17.109.015.173.02.281 0 .307-.054.317-.43.618-.513.19-.052.321.073.505 0 .202-.08.21-.28.393-.399.14-.091.231-.13.393-.171.255-.066.41 0 .674 0h.393s.282-.055.45 0c.12.04.162.12.28.171.323.138.562-.1.899 0 .292.087.373.346.673.4.152.027.24 0 .393 0h.618s.473.014.674-.172c.13-.12.053-.444.224-.399.09.024.114.095.169.171.157.22-.056.475.112.685.1.124.18.21.337.228.166.018.274-.052.393-.171.149-.149.018-.368.169-.514.222-.215.786 0 .786 0s.35.08.561.171c.208.09.286.232.506.286.192.047.326.085.505 0 .199-.095.14-.357.337-.457.196-.1.425-.174.561 0 .11.14-.087.302 0 .457.153.27.48 0 .787 0 .307 0 .536-.182.786 0 .183.133.119.353.28.513.19.188.354.307.618.285.225-.018.315-.162.506-.285.066-.043.095-.083.168-.114.142-.06.256-.07.393 0 .125.064.097.225.225.285.12.056.207.025.337 0 .222-.042.34-.129.505-.285.138-.13.17-.245.28-.4.13-.18.165-.319.338-.456.219-.173.42-.114.674-.228.134-.06.225-.073.336-.171.12-.105.073-.299.225-.342a.249.249 0 0 1 .169 0c.187.063-.062.323 0 .513.058.182.233.214.28.4.033.129-.041.215 0 .342.06.179.206.208.337.342.11.111.207.147.28.285.127.235-.167.479 0 .685.147.179.335.146.563.17.13.015.227-.11.336 0l.281.286c.11.111.205 0 .337 0H28.072c.093-.057.291-.137.336 0 .045.137.02.4 0 .513l.506.286.505.399.28.285.394.228.674.628.224.513s.45.228.506.285c.056.057.28.628.28.628s-.112.342 0 .342c.113 0 .45.057.562.114.112.057.169.342.28.4.113.057.394-.058.45 0 .056.057.168.228.168.228h.73c.225 0-.168.97-.168.97l-.225.399s-.337.057-.337.17c0 .115.169.457.169.457v.685l-.169.399s-.28.228-.168.342c.112.114.337 0 .337 0h.562s.617-.057.786 0c.168.057.505.457.449.514-.056.057-.45.285-.45.285s-.28.456-.336.513c-.056.057-.415.032-.45.228-.026.147.192.195.169.343-.035.23-.562.17-.562.17-.197-.066-.344-.305-.505-.17-.091.076-.068.174-.112.285-.044.111-.172-.24-.337-.285-.256-.072-.618.285-.618.285l-.225.57s.077.329 0 .514c-.096.234-.505.399-.505.399l-.28.342s-.206.3-.394.285c-.17-.012-.17-.243-.337-.285-.202-.05-.505.171-.505.171l-.337.343-.505.456-.281.456v.286c.094.095.28.308.28.399 0 .114.282.4 0 .513-.224.091-.28.495-.28.685l.28.456-.28.342-.225.514-.337.513s.232.208.169.342c-.027.057-.052.102-.112.114-.022.005-.035-.002-.056 0-.176.019-.225.4-.225.4s-.086.24 0 .342c.1.118.244-.037.393 0 .172.043.393.228.393.228l.28.285.17.343s.19.5 0 .684c-.131.127-.305.005-.45.114-.127.096-.089.26-.225.343-.238.144-.673-.229-.673-.229s-.258-.255-.169-.399c.082-.133.286.056.393-.057.122-.128.037-.282 0-.456-.06-.284-.108-.605-.393-.628-.166-.013-.234.119-.393.171-.212.071-.34.077-.561.114-.153.026-.251-.005-.394.058-.199.087-.393.399-.393.399l-.337.4s-.238.43-.505.512c-.255.08-.407-.114-.674-.114-.267 0-.484-.077-.674.114-.104.106-.168.343-.168.343s-.054.286 0 .456c.04.124.055.226.168.285.098.05.204-.079.281 0 .11.112-.155.192-.28.285-.175.13-.334.095-.506.229-.098.076-.159.406-.224.228l-.169-.456c-.066-.179-.337 0-.337 0l-.393.456-.28.342s-.191.167-.338.228c-.284.119-.786 0-.786 0l-.618-.228s-.183-.19-.336-.228c-.25-.062-.363.198-.618.228-.13.016-.21.035-.337 0-.152-.042-.181-.2-.337-.228-.213-.037-.44.019-.505.228-.027.085.039.149 0 .228-.079.16-.286.066-.45 0-.13-.052-.142-.206-.28-.228-.175-.028-.216.228-.393.228-.177 0-.393-.228-.393-.228l-.225-.228s-.242-.173-.28-.342c-.02-.087-.008-.14 0-.229.024-.309.298-.431.28-.741-.016-.269-.28-.627-.28-.627s-.277-.381-.506-.571c-.289-.24-.574-.194-.842-.456-.158-.155-.159-.327-.337-.457-.204-.147-.508-.015-.618-.17l-.28-.4c-.11-.156-.144.033-.225 0-.204-.083.147-.406 0-.57-.122-.136-.269-.11-.45-.115-.202-.005-.44-.041-.505.114l-.168.4c-.066.156-.226-.216-.281-.4-.052-.17.03-.28 0-.456-.05-.294-.318-.646-.337-.684-.019-.038 0-.343 0-.343s.243-.304.337-.342c.093-.038-.303-.026-.337-.171-.04-.17.242-.14.337-.285.123-.19.167-.35.112-.57-.046-.186-.332-.216-.28-.4.038-.137.167-.144.28-.228.247-.182.527-.128.674-.4.137-.253.132-.563 0-.741l-.337-.456s-.245-.343-.45-.514c-.196-.165-.406-.135-.56-.342-.102-.135-.092-.249-.17-.4-.109-.213-.102-.47-.336-.513-.193-.035-.258.183-.45.228-.191.047-.31.035-.505 0-.232-.04-.33-.18-.561-.228-.258-.053-.448-.136-.674 0-.147.09-.154.226-.28.343-.082.074-.117.15-.225.17-.145.027-.264-.04-.337-.17-.066-.117.066-.227 0-.343-.064-.112-.154-.16-.281-.17-.147-.012-.19.182-.337.17-.127-.01-.177-.094-.28-.17-.176-.13-.182-.352-.394-.4-.085-.02-.139.02-.224 0-.167-.04-.206-.174-.337-.285-.132-.112-.185-.205-.337-.286a.99.99 0 0 0-.393-.114c-.13-.016-.207.02-.337 0-.185-.028-.316-.037-.45-.17-.147-.15-.02-.365-.168-.514-.104-.106-.19-.163-.337-.171-.166-.01-.267.059-.393.17-.082.074-.061.204-.168.229-.163.038-.258-.256-.169-.4.064-.1.204-.022.281-.113.087-.103.077-.209.056-.343a.388.388 0 0 0-.056-.17c-.069-.11-.153-.172-.28-.172-.129 0-.216.283-.281.171-.034-.057-.015-.106 0-.17.034-.154.192-.156.28-.286a.866.866 0 0 0 .169-.4c.043-.271-.169-.684-.169-.684l-.28-.627-.281-1.084v-.57 1.654c0 .334.077.53 0 .855-.062.262-.184.377-.281.628-.102.262-.115.484-.225.684l-.28.514c-.11.2-.17.32-.337.285-.138-.029-.26-.147-.225-.285.027-.108.144-.096.225-.171.173-.165.337-.514.337-.514s.194-.408.28-.684c.095-.304.169-.799.169-.799l.056-1.084s.054-.664 0-1.084c-.047-.364-.225-.912-.225-.912v-.913s.122-.378.169-.627c.082-.439-.324-.917.056-1.141Z"/>
</svg>