<svg width="24" height="24" viewBox="0 0 24 24" fill="none" xmlns="http://www.w3.org/2000/svg">
<path d="M22.3581 2.46115L22.3201 2.43734L17.5211 0.0644531L12.3413 6.9959L14.7244 10.1851C14.6531 11.3878 14.1449 12.5226 13.296 13.3745C12.4471 14.2265 11.3165 14.7365 10.1181 14.8081L6.94049 12.4163L0.0341797 17.6148L2.37881 22.391L2.39854 22.4313L2.42231 22.4694C2.54744 22.6717 2.72207 22.8386 2.92961 22.954C3.13714 23.0694 3.37066 23.1297 3.60793 23.1289H4.84625C7.23223 23.1289 9.59485 22.6572 11.7992 21.7408C14.0036 20.8245 16.0065 19.4813 17.6936 17.788C19.3808 16.0947 20.7191 14.0845 21.6322 11.8722C22.5452 9.65979 23.0152 7.28859 23.0152 4.89395V3.65107C23.0159 3.41294 22.9559 3.17858 22.8409 2.97029C22.7259 2.762 22.5597 2.58673 22.3581 2.46115ZM21.2417 4.89395C21.2417 13.9673 13.8867 21.349 4.84625 21.349H3.84424L2.27551 18.1528L6.94082 14.6411L9.53823 16.5961H9.83379C11.6029 16.5942 13.2989 15.888 14.5499 14.6325C15.8008 13.377 16.5045 11.6748 16.5064 9.89926V9.60263L14.5585 6.99585L18.0571 2.31386L21.2417 3.88858V4.89395Z" fill="black"/>
</svg>
