<svg xmlns="http://www.w3.org/2000/svg" width="29" height="29" fill="none">
  <path fill="#005248" d="M14.164 28.714c-2.802 0-5.54-.84-7.87-2.415a14.297 14.297 0 0 1-5.216-6.433 14.493 14.493 0 0 1-.806-8.281 14.387 14.387 0 0 1 3.876-7.34A14.08 14.08 0 0 1 14.164.049a14.08 14.08 0 0 1 10.015 4.198 14.42 14.42 0 0 1 4.149 10.135 14.42 14.42 0 0 1-4.149 10.135 14.06 14.06 0 0 1-4.592 3.114 13.925 13.925 0 0 1-5.423 1.084Zm0-26.755C7.395 1.959 1.889 7.53 1.889 14.38c0 6.85 5.506 12.422 12.275 12.422 6.768 0 12.275-5.573 12.275-12.422 0-6.85-5.507-12.422-12.275-12.422Z"/>
  <path fill="#005248" d="M14.162 19.555 6.884 12.19l1.336-1.351 5.942 6.013 5.942-6.013 1.335 1.35-7.277 7.366Z"/>
</svg>